<svg width="747" height="161" viewBox="0 0 747 161" fill="none" xmlns="http://www.w3.org/2000/svg">
<rect width="747" height="161" fill="#E5E5E5"/>
<rect y="0.908203" width="747" height="160.092" rx="59" fill="black"/>
<g filter="url(#filter0_i_0_1)">
<path d="M36.4263 47.7739L85.6421 98.4004V50.4385H94.7329V120.083L45.5171 69.7173V117H36.4263V47.7739ZM107.585 50.4385H144.471V59.5293H116.572V76.1436H144.471V85.1299H116.572V108.014H144.471V117H107.585V50.4385ZM152.465 83.3013C152.465 73.688 156.087 65.4505 163.332 58.5889C170.577 51.7272 179.285 48.2964 189.455 48.2964C199.382 48.2964 207.933 51.762 215.108 58.6934C222.283 65.5898 225.871 73.7925 225.871 83.3013C225.871 93.3674 222.318 101.883 215.212 108.85C208.142 115.781 199.451 119.247 189.142 119.247C178.971 119.247 170.316 115.746 163.175 108.745C156.035 101.744 152.465 93.2629 152.465 83.3013ZM216.205 83.7192C216.205 76.37 213.558 70.1875 208.264 65.1719C202.969 60.1214 196.456 57.5962 188.724 57.5962C181.374 57.5962 175.07 60.1562 169.811 65.2764C164.586 70.3965 161.974 76.5441 161.974 83.7192C161.974 90.9989 164.656 97.1639 170.02 102.214C175.418 107.23 182.019 109.738 189.821 109.738C196.996 109.738 203.178 107.178 208.368 102.058C213.593 96.9027 216.205 90.7899 216.205 83.7192ZM237.26 47.7739L286.476 98.4004V50.4385H295.567V120.083L246.351 69.7173V117H237.26V47.7739ZM348.544 39.4146H354.5L311.188 140.563H304.971L348.544 39.4146ZM364.793 50.4385H378.168C385.726 50.4385 391.822 52.2148 396.454 55.7676C401.087 59.3203 403.403 63.9354 403.403 69.6128C403.403 75.325 400.947 80.1143 396.036 83.9805C391.16 87.8467 383.741 89.7275 373.779 89.623V117H364.793V50.4385ZM373.779 58.3799V81.6816C380.606 81.612 385.657 80.6541 388.931 78.8081C392.24 76.9272 393.894 73.9318 393.894 69.8218C393.894 66.7218 392.64 64.0399 390.132 61.7759C387.659 59.5119 382.208 58.3799 373.779 58.3799ZM469.964 52.6851V62.9775C462.789 59.4596 456.189 57.7007 450.163 57.7007C442.431 57.7007 435.917 60.2085 430.623 65.2241C425.329 70.2049 422.682 76.3351 422.682 83.6147C422.682 91.0337 425.381 97.2336 430.78 102.214C436.213 107.16 443.005 109.633 451.156 109.633C457.077 109.633 463.347 107.77 469.964 104.043V114.44C463.939 117.644 457.408 119.247 450.372 119.247C440.062 119.247 431.25 115.764 423.936 108.797C416.621 101.796 412.964 93.3674 412.964 83.5103C412.964 73.8273 416.551 65.5376 423.727 58.6411C430.937 51.7446 439.609 48.2964 449.745 48.2964C456.258 48.2964 462.998 49.7593 469.964 52.6851ZM479.578 90.9814H503.82V99.8633H479.578V90.9814ZM557.111 57.8052L549.744 63.709C547.794 61.6888 546.017 60.1911 544.415 59.2158C542.848 58.2057 540.566 57.7007 537.571 57.7007C534.297 57.7007 531.632 58.4495 529.577 59.9473C527.557 61.4102 526.547 63.3084 526.547 65.6421C526.547 67.6623 527.435 69.4561 529.211 71.0234C530.988 72.556 534.018 74.2453 538.302 76.0913C542.586 77.9025 545.913 79.6092 548.281 81.2114C550.685 82.7788 552.653 84.5203 554.185 86.436C555.718 88.3517 556.85 90.3719 557.581 92.4966C558.347 94.6213 558.73 96.8678 558.73 99.2363C558.73 104.774 556.71 109.494 552.67 113.395C548.664 117.296 543.806 119.247 538.093 119.247C532.52 119.247 527.592 117.731 523.308 114.701C519.058 111.636 515.784 107.056 513.485 100.96L522.576 98.4004C525.885 105.889 530.953 109.633 537.78 109.633C541.089 109.633 543.84 108.641 546.035 106.655C548.229 104.67 549.326 102.162 549.326 99.1318C549.326 97.3206 548.751 95.5094 547.602 93.6982C546.453 91.8522 545.025 90.3371 543.318 89.1528C541.611 87.9686 538.877 86.6276 535.115 85.1299C531.388 83.5973 528.515 82.2041 526.495 80.9502C524.509 79.6615 522.785 78.1463 521.322 76.4048C519.859 74.6284 518.78 72.8695 518.083 71.1279C517.421 69.3864 517.09 67.5229 517.09 65.5376C517.09 60.7658 519.006 56.708 522.837 53.3643C526.669 49.9857 531.319 48.2964 536.787 48.2964C540.41 48.2964 544.084 49.0801 547.811 50.6475C551.538 52.2148 554.638 54.6007 557.111 57.8052ZM567.09 49.1846H576.181V80.9502C578.688 78.0592 581.022 75.9694 583.182 74.6807C585.376 73.3571 588.041 72.6953 591.175 72.6953C594.833 72.6953 597.985 74.106 600.632 76.9272C603.314 79.7137 604.655 83.0575 604.655 86.9585V117H595.564V89.5186C595.564 86.8018 594.867 84.6248 593.474 82.9878C592.116 81.3507 590.305 80.5322 588.041 80.5322C584.766 80.5322 581.963 81.7687 579.629 84.2417C577.33 86.7147 576.181 89.7101 576.181 93.228V117H567.09V49.1846ZM613.589 95.2656C613.589 89.3792 615.905 84.1546 620.538 79.5918C625.205 74.9941 630.551 72.6953 636.577 72.6953C642.777 72.6953 648.193 74.9593 652.826 79.4873C657.458 83.9805 659.774 89.2399 659.774 95.2656C659.774 101.326 657.493 106.673 652.93 111.305C648.402 115.903 643.16 118.202 637.204 118.202C630.83 118.202 625.292 115.92 620.59 111.357C615.923 106.795 613.589 101.431 613.589 95.2656ZM650.997 95.2656C650.997 91.6084 649.604 88.4388 646.817 85.7568C644.031 83.04 640.722 81.6816 636.891 81.6816C632.955 81.6816 629.559 83.0575 626.703 85.8091C623.881 88.5259 622.471 91.7826 622.471 95.5791C622.471 99.2015 623.899 102.371 626.755 105.088C629.646 107.805 633.024 109.163 636.891 109.163C640.652 109.163 643.944 107.77 646.765 104.983C649.586 102.197 650.997 98.9577 650.997 95.2656ZM679.68 73.897V82.5698C684.034 75.9868 689.607 72.6953 696.399 72.6953C701.972 72.6953 706.761 74.9245 710.767 79.3828C714.807 83.8063 716.827 89.1006 716.827 95.2656C716.827 101.5 714.79 106.882 710.714 111.41C706.639 115.938 701.833 118.202 696.294 118.202C693.09 118.202 690.007 117.366 687.047 115.694C684.121 114.022 681.7 111.601 679.785 108.432V137.219H670.694V73.897H679.68ZM707.318 95.2656C707.318 91.4691 705.89 88.1602 703.034 85.3389C700.178 82.4827 696.817 81.0547 692.951 81.0547C689.015 81.0547 685.601 82.4653 682.71 85.2866C679.854 88.1079 678.426 91.4342 678.426 95.2656C678.426 99.2015 679.837 102.615 682.658 105.506C685.514 108.397 688.875 109.842 692.742 109.842C696.747 109.842 700.178 108.414 703.034 105.558C705.89 102.702 707.318 99.2712 707.318 95.2656Z" fill="black"/>
</g>
<path d="M36.4263 47.7739L40.0114 44.2887L31.4263 35.4575V47.7739H36.4263ZM85.6421 98.4004L82.057 101.886L90.6421 110.717V98.4004H85.6421ZM85.6421 50.4385V45.4385H80.6421V50.4385H85.6421ZM94.7329 50.4385H99.7329V45.4385H94.7329V50.4385ZM94.7329 120.083L91.1568 123.577L99.7329 132.353V120.083H94.7329ZM45.5171 69.7173L49.0932 66.2228L40.5171 57.4464V69.7173H45.5171ZM45.5171 117V122H50.5171V117H45.5171ZM36.4263 117H31.4263V122H36.4263V117ZM32.8411 51.2592L82.057 101.886L89.2272 94.9152L40.0114 44.2887L32.8411 51.2592ZM90.6421 98.4004V50.4385H80.6421V98.4004H90.6421ZM85.6421 55.4385H94.7329V45.4385H85.6421V55.4385ZM89.7329 50.4385V120.083H99.7329V50.4385H89.7329ZM98.309 116.588L49.0932 66.2228L41.941 73.2118L91.1568 123.577L98.309 116.588ZM40.5171 69.7173V117H50.5171V69.7173H40.5171ZM45.5171 112H36.4263V122H45.5171V112ZM41.4263 117V47.7739H31.4263V117H41.4263ZM107.585 50.4385V45.4385H102.585V50.4385H107.585ZM144.471 50.4385H149.471V45.4385H144.471V50.4385ZM144.471 59.5293V64.5293H149.471V59.5293H144.471ZM116.572 59.5293V54.5293H111.572V59.5293H116.572ZM116.572 76.1436H111.572V81.1436H116.572V76.1436ZM144.471 76.1436H149.471V71.1436H144.471V76.1436ZM144.471 85.1299V90.1299H149.471V85.1299H144.471ZM116.572 85.1299V80.1299H111.572V85.1299H116.572ZM116.572 108.014H111.572V113.014H116.572V108.014ZM144.471 108.014H149.471V103.014H144.471V108.014ZM144.471 117V122H149.471V117H144.471ZM107.585 117H102.585V122H107.585V117ZM107.585 55.4385H144.471V45.4385H107.585V55.4385ZM139.471 50.4385V59.5293H149.471V50.4385H139.471ZM144.471 54.5293H116.572V64.5293H144.471V54.5293ZM111.572 59.5293V76.1436H121.572V59.5293H111.572ZM116.572 81.1436H144.471V71.1436H116.572V81.1436ZM139.471 76.1436V85.1299H149.471V76.1436H139.471ZM144.471 80.1299H116.572V90.1299H144.471V80.1299ZM111.572 85.1299V108.014H121.572V85.1299H111.572ZM116.572 113.014H144.471V103.014H116.572V113.014ZM139.471 108.014V117H149.471V108.014H139.471ZM144.471 112H107.585V122H144.471V112ZM112.585 117V50.4385H102.585V117H112.585ZM163.332 58.5889L159.894 54.9586L163.332 58.5889ZM215.108 58.6934L211.634 62.2895L211.643 62.2982L215.108 58.6934ZM215.212 108.85L218.713 112.42L218.713 112.42L215.212 108.85ZM208.264 65.1719L204.812 68.7897L204.819 68.7957L204.825 68.8016L208.264 65.1719ZM169.811 65.2764L166.323 61.6937L166.317 61.6995L166.311 61.7053L169.811 65.2764ZM170.02 102.214L166.592 105.855L166.604 105.866L166.616 105.877L170.02 102.214ZM208.368 102.058L211.88 105.617L211.88 105.617L208.368 102.058ZM157.465 83.3013C157.465 75.1188 160.48 68.1769 166.77 62.2191L159.894 54.9586C151.695 62.7242 147.465 72.2571 147.465 83.3013H157.465ZM166.77 62.2191C173.067 56.2557 180.536 53.2964 189.455 53.2964V43.2964C178.033 43.2964 168.087 47.1988 159.894 54.9586L166.77 62.2191ZM189.455 53.2964C198.078 53.2964 205.386 56.2537 211.634 62.2895L218.582 55.0973C210.48 47.2704 200.685 43.2964 189.455 43.2964V53.2964ZM211.643 62.2982C217.889 68.3012 220.871 75.2224 220.871 83.3013H230.871C230.871 72.3626 226.677 62.8785 218.573 55.0885L211.643 62.2982ZM220.871 83.3013C220.871 92.0417 217.846 99.2657 211.712 105.279L218.713 112.42C226.79 104.501 230.871 94.693 230.871 83.3013H220.871ZM211.712 105.279C205.618 111.253 198.203 114.247 189.142 114.247V124.247C200.7 124.247 210.665 120.309 218.713 112.42L211.712 105.279ZM189.142 114.247C180.255 114.247 172.864 111.242 166.676 105.175L159.675 112.315C167.767 120.25 177.687 124.247 189.142 124.247V114.247ZM166.676 105.175C160.49 99.1102 157.465 91.9139 157.465 83.3013H147.465C147.465 94.6118 151.58 104.378 159.675 112.315L166.676 105.175ZM221.205 83.7192C221.205 75.009 218.002 67.5102 211.702 61.5421L204.825 68.8016C209.114 72.8648 211.205 77.7309 211.205 83.7192H221.205ZM211.715 61.554C205.434 55.5623 197.661 52.5962 188.724 52.5962V62.5962C195.251 62.5962 200.505 64.6805 204.812 68.7897L211.715 61.554ZM188.724 52.5962C180.073 52.5962 172.517 55.6635 166.323 61.6937L173.298 68.859C177.623 64.649 182.675 62.5962 188.724 62.5962V52.5962ZM166.311 61.7053C160.148 67.7452 156.974 75.1713 156.974 83.7192H166.974C166.974 77.9169 169.024 73.0478 173.31 68.8474L166.311 61.7053ZM156.974 83.7192C156.974 92.3959 160.238 99.8723 166.592 105.855L173.447 98.574C169.073 94.4555 166.974 89.6018 166.974 83.7192H156.974ZM166.616 105.877C172.998 111.806 180.838 114.738 189.821 114.738V104.738C183.2 104.738 177.839 102.654 173.423 98.5512L166.616 105.877ZM189.821 114.738C198.334 114.738 205.771 111.644 211.88 105.617L204.857 98.4983C200.586 102.712 195.658 104.738 189.821 104.738V114.738ZM211.88 105.617C218.016 99.5623 221.205 92.1835 221.205 83.7192H211.205C211.205 89.3963 209.169 94.243 204.856 98.4984L211.88 105.617ZM237.26 47.7739L240.845 44.2887L232.26 35.4575V47.7739H237.26ZM286.476 98.4004L282.891 101.886L291.476 110.717V98.4004H286.476ZM286.476 50.4385V45.4385H281.476V50.4385H286.476ZM295.567 50.4385H300.567V45.4385H295.567V50.4385ZM295.567 120.083L291.991 123.577L300.567 132.353V120.083H295.567ZM246.351 69.7173L249.927 66.2228L241.351 57.4464V69.7173H246.351ZM246.351 117V122H251.351V117H246.351ZM237.26 117H232.26V122H237.26V117ZM233.675 51.2592L282.891 101.886L290.061 94.9152L240.845 44.2887L233.675 51.2592ZM291.476 98.4004V50.4385H281.476V98.4004H291.476ZM286.476 55.4385H295.567V45.4385H286.476V55.4385ZM290.567 50.4385V120.083H300.567V50.4385H290.567ZM299.143 116.588L249.927 66.2228L242.775 73.2118L291.991 123.577L299.143 116.588ZM241.351 69.7173V117H251.351V69.7173H241.351ZM246.351 112H237.26V122H246.351V112ZM242.26 117V47.7739H232.26V117H242.26ZM348.544 39.4146V34.4146H345.254L343.952 37.4364L348.544 39.4146ZM354.5 39.4146L359.097 41.3827L362.081 34.4146H354.5V39.4146ZM311.188 140.563V145.563H314.487L315.785 142.531L311.188 140.563ZM304.971 140.563L300.379 138.585L297.373 145.563H304.971V140.563ZM348.544 44.4146H354.5V34.4146H348.544V44.4146ZM349.904 37.4464L306.592 138.595L315.785 142.531L359.097 41.3827L349.904 37.4464ZM311.188 135.563H304.971V145.563H311.188V135.563ZM309.563 142.541L353.136 41.3927L343.952 37.4364L300.379 138.585L309.563 142.541ZM364.793 50.4385V45.4385H359.793V50.4385H364.793ZM396.036 83.9805L392.943 80.0518L392.937 80.0571L392.93 80.0625L396.036 83.9805ZM373.779 89.623L373.832 84.6233L368.779 84.5703V89.623H373.779ZM373.779 117V122H378.779V117H373.779ZM364.793 117H359.793V122H364.793V117ZM373.779 58.3799V53.3799H368.779V58.3799H373.779ZM373.779 81.6816H368.779V86.7329L373.83 86.6814L373.779 81.6816ZM388.931 78.8081L391.386 83.1635L391.394 83.1592L391.401 83.1549L388.931 78.8081ZM390.132 61.7759L386.756 65.4638L386.769 65.4756L386.782 65.4872L390.132 61.7759ZM364.793 55.4385H378.168V45.4385H364.793V55.4385ZM378.168 55.4385C384.952 55.4385 389.879 57.0265 393.411 59.7351L399.497 51.8C393.764 47.4032 386.5 45.4385 378.168 45.4385V55.4385ZM393.411 59.7351C396.851 62.3729 398.403 65.5411 398.403 69.6128H408.403C408.403 62.3297 405.322 56.2677 399.497 51.8L393.411 59.7351ZM398.403 69.6128C398.403 73.6342 396.78 77.0313 392.943 80.0518L399.129 87.9092C405.114 83.1972 408.403 77.0158 408.403 69.6128H398.403ZM392.93 80.0625C389.351 82.8998 383.291 84.7225 373.832 84.6233L373.727 94.6228C384.191 94.7325 392.968 92.7936 399.143 87.8984L392.93 80.0625ZM368.779 89.623V117H378.779V89.623H368.779ZM373.779 112H364.793V122H373.779V112ZM369.793 117V50.4385H359.793V117H369.793ZM368.779 58.3799V81.6816H378.779V58.3799H368.779ZM373.83 86.6814C380.915 86.6091 386.997 85.6385 391.386 83.1635L386.475 74.4527C384.316 75.6698 380.297 76.6149 373.728 76.6819L373.83 86.6814ZM391.401 83.1549C396.421 80.3019 398.894 75.5546 398.894 69.8218H388.894C388.894 72.309 388.058 73.5526 386.46 74.4613L391.401 83.1549ZM398.894 69.8218C398.894 65.1706 396.935 61.1811 393.483 58.0645L386.782 65.4872C388.345 66.8986 388.894 68.273 388.894 69.8218H398.894ZM393.509 58.088C391.304 56.07 388.294 54.9747 385.206 54.3333C382.022 53.6722 378.18 53.3799 373.779 53.3799V63.3799C377.807 63.3799 380.905 63.6536 383.173 64.1244C385.535 64.6151 386.487 65.2178 386.756 65.4638L393.509 58.088ZM469.964 52.6851H474.964V49.362L471.901 48.0751L469.964 52.6851ZM469.964 62.9775L467.763 67.467L474.964 70.9976V62.9775H469.964ZM430.623 65.2241L434.049 68.8658L434.055 68.8599L434.062 68.8539L430.623 65.2241ZM430.78 102.214L427.389 105.889L427.402 105.901L427.414 105.912L430.78 102.214ZM469.964 104.043H474.964V95.4888L467.511 99.6863L469.964 104.043ZM469.964 114.44L472.312 118.855L474.964 117.444V114.44H469.964ZM423.936 108.797L420.478 112.409L420.487 112.418L423.936 108.797ZM423.727 58.6411L420.27 55.0279L420.262 55.0363L423.727 58.6411ZM464.964 52.6851V62.9775H474.964V52.6851H464.964ZM472.165 58.4881C464.519 54.7391 457.159 52.7007 450.163 52.7007V62.7007C455.219 62.7007 461.059 64.1802 467.763 67.467L472.165 58.4881ZM450.163 52.7007C441.236 52.7007 433.467 55.6422 427.184 61.5944L434.062 68.8539C438.367 64.7748 443.625 62.7007 450.163 62.7007V52.7007ZM427.197 61.5824C420.897 67.5097 417.682 74.9584 417.682 83.6147H427.682C427.682 77.7118 429.761 72.9001 434.049 68.8658L427.197 61.5824ZM417.682 83.6147C417.682 92.4137 420.953 99.9512 427.389 105.889L434.17 98.5394C429.809 94.5159 427.682 89.6537 427.682 83.6147H417.682ZM427.414 105.912C433.872 111.79 441.907 114.633 451.156 114.633V104.633C444.103 104.633 438.555 102.531 434.146 98.5168L427.414 105.912ZM451.156 114.633C458.146 114.633 465.258 112.432 472.418 108.4L467.511 99.6863C461.435 103.108 456.008 104.633 451.156 104.633V114.633ZM464.964 104.043V114.44H474.964V104.043H464.964ZM467.617 110.025C462.337 112.833 456.615 114.247 450.372 114.247V124.247C458.2 124.247 465.541 122.455 472.312 118.855L467.617 110.025ZM450.372 114.247C441.316 114.247 433.747 111.237 427.384 105.177L420.487 112.418C428.753 120.29 438.808 124.247 450.372 124.247V114.247ZM427.393 105.185C421.034 99.0986 417.964 91.9621 417.964 83.5103H407.964C407.964 94.7726 412.209 104.494 420.478 112.409L427.393 105.185ZM417.964 83.5103C417.964 75.2297 420.966 68.2292 427.191 62.246L420.262 55.0363C412.136 62.846 407.964 72.4249 407.964 83.5103H417.964ZM427.183 62.2543C433.446 56.2635 440.874 53.2964 449.745 53.2964V43.2964C438.345 43.2964 428.427 47.2257 420.27 55.0279L427.183 62.2543ZM449.745 53.2964C455.496 53.2964 461.578 54.5859 468.028 57.295L471.901 48.0751C464.418 44.9327 457.021 43.2964 449.745 43.2964V53.2964ZM479.578 90.9814V85.9814H474.578V90.9814H479.578ZM503.82 90.9814H508.82V85.9814H503.82V90.9814ZM503.82 99.8633V104.863H508.82V99.8633H503.82ZM479.578 99.8633H474.578V104.863H479.578V99.8633ZM479.578 95.9814H503.82V85.9814H479.578V95.9814ZM498.82 90.9814V99.8633H508.82V90.9814H498.82ZM503.82 94.8633H479.578V104.863H503.82V94.8633ZM484.578 99.8633V90.9814H474.578V99.8633H484.578ZM557.111 57.8052L560.238 61.7068L564.068 58.6368L561.069 54.7504L557.111 57.8052ZM549.744 63.709L546.147 67.182L549.314 70.4616L552.871 67.6106L549.744 63.709ZM544.415 59.2158L541.707 63.4187L541.76 63.4534L541.815 63.4868L544.415 59.2158ZM529.577 59.9473L532.51 63.997L532.516 63.9925L532.522 63.988L529.577 59.9473ZM529.211 71.0234L525.903 74.7726L525.924 74.791L525.945 74.8092L529.211 71.0234ZM538.302 76.0913L536.324 80.6832L536.339 80.69L536.355 80.6967L538.302 76.0913ZM548.281 81.2114L545.48 85.3528L545.515 85.3765L545.55 85.3995L548.281 81.2114ZM557.581 92.4966L552.853 94.1241L552.865 94.1586L552.878 94.1929L557.581 92.4966ZM552.67 113.395L549.197 109.798L549.189 109.806L549.181 109.813L552.67 113.395ZM523.308 114.701L520.383 118.756L520.401 118.77L520.42 118.783L523.308 114.701ZM513.485 100.96L512.13 96.1476L506.884 97.6251L508.807 102.725L513.485 100.96ZM522.576 98.4004L527.15 96.3796L525.396 92.4117L521.221 93.5876L522.576 98.4004ZM547.602 93.6982L543.358 96.341L543.369 96.3592L543.38 96.3774L547.602 93.6982ZM543.318 89.1528L546.168 85.0449L543.318 89.1528ZM535.115 85.1299L533.214 89.7542L533.24 89.7648L533.266 89.7752L535.115 85.1299ZM526.495 80.9502L523.772 85.1441L523.815 85.1717L523.858 85.1984L526.495 80.9502ZM521.322 76.4048L517.463 79.5833L517.478 79.6021L517.494 79.6207L521.322 76.4048ZM518.083 71.1279L513.409 72.904L513.425 72.9446L513.441 72.9849L518.083 71.1279ZM522.837 53.3643L526.125 57.1314L526.135 57.1229L526.144 57.1144L522.837 53.3643ZM553.984 53.9035L546.617 59.8073L552.871 67.6106L560.238 61.7068L553.984 53.9035ZM553.341 60.236C551.225 58.0445 549.115 56.223 547.015 54.9448L541.815 63.4868C542.92 64.1591 544.362 65.3331 546.147 67.182L553.341 60.236ZM547.124 55.013C544.396 53.2552 540.997 52.7007 537.571 52.7007V62.7007C540.135 62.7007 541.299 63.1563 541.707 63.4187L547.124 55.013ZM537.571 52.7007C533.543 52.7007 529.76 53.6271 526.632 55.9065L532.522 63.988C533.504 63.272 535.05 62.7007 537.571 62.7007V52.7007ZM526.645 55.8976C523.43 58.225 521.547 61.5802 521.547 65.6421H531.547C531.547 65.0367 531.683 64.5953 532.51 63.997L526.645 55.8976ZM521.547 65.6421C521.547 69.3486 523.256 72.4364 525.903 74.7726L532.52 67.2742C531.614 66.4757 531.547 65.976 531.547 65.6421H521.547ZM525.945 74.8092C528.324 76.8612 531.938 78.7935 536.324 80.6832L540.281 71.4995C536.098 69.6971 533.652 68.2508 532.478 67.2377L525.945 74.8092ZM536.355 80.6967C540.501 82.4494 543.494 84.0097 545.48 85.3528L551.083 77.07C548.331 75.2087 544.672 73.3556 540.249 71.486L536.355 80.6967ZM545.55 85.3995C547.582 86.7246 549.131 88.1223 550.281 89.5595L558.089 83.3126C556.174 80.9184 553.787 78.833 551.013 77.0234L545.55 85.3995ZM550.281 89.5595C551.488 91.0685 552.325 92.5892 552.853 94.1241L562.309 90.869C561.374 88.1546 559.947 85.6349 558.089 83.3126L550.281 89.5595ZM552.878 94.1929C553.438 95.7474 553.73 97.4178 553.73 99.2363H563.73C563.73 96.3179 563.256 93.4951 562.285 90.8003L552.878 94.1929ZM553.73 99.2363C553.73 103.396 552.277 106.824 549.197 109.798L556.143 116.992C561.144 112.164 563.73 106.152 563.73 99.2363H553.73ZM549.181 109.813C546.132 112.783 542.534 114.247 538.093 114.247V124.247C545.077 124.247 551.197 121.809 556.158 116.977L549.181 109.813ZM538.093 114.247C533.487 114.247 529.581 113.014 526.195 110.619L520.42 118.783C525.603 122.449 531.554 124.247 538.093 124.247V114.247ZM526.233 110.646C522.955 108.281 520.2 104.597 518.164 99.196L508.807 102.725C511.368 109.515 515.162 114.991 520.383 118.756L526.233 110.646ZM514.841 105.773L523.932 103.213L521.221 93.5876L512.13 96.1476L514.841 105.773ZM518.003 100.421C519.906 104.728 522.476 108.326 525.888 110.847C529.355 113.408 533.391 114.633 537.78 114.633V104.633C535.342 104.633 533.431 103.986 531.83 102.804C530.174 101.58 528.555 99.5609 527.15 96.3796L518.003 100.421ZM537.78 114.633C542.171 114.633 546.165 113.28 549.389 110.363L542.68 102.948C541.516 104.001 540.007 104.633 537.78 104.633V114.633ZM549.389 110.363C552.66 107.404 554.326 103.536 554.326 99.1318H544.326C544.326 100.788 543.798 101.936 542.68 102.948L549.389 110.363ZM554.326 99.1318C554.326 96.2088 553.386 93.4817 551.824 91.0191L543.38 96.3774C544.116 97.5372 544.326 98.4324 544.326 99.1318H554.326ZM551.847 91.0554C550.354 88.6588 548.461 86.6356 546.168 85.0449L540.467 93.2608C541.588 94.0386 542.551 95.0456 543.358 96.341L551.847 91.0554ZM546.168 85.0449C543.979 83.526 540.813 82.0168 536.965 80.4845L533.266 89.7752C536.941 91.2384 539.243 92.4111 540.467 93.2608L546.168 85.0449ZM537.017 80.5056C533.396 79.0166 530.812 77.7448 529.131 76.702L523.858 85.1984C526.218 86.6634 529.381 88.1781 533.214 89.7542L537.017 80.5056ZM529.217 76.7563C527.63 75.726 526.283 74.5362 525.151 73.1888L517.494 79.6207C519.288 81.7564 521.389 83.5969 523.772 85.1441L529.217 76.7563ZM525.182 73.2262C523.975 71.7608 523.193 70.4402 522.725 69.271L513.441 72.9849C514.366 75.2988 515.744 77.496 517.463 79.5833L525.182 73.2262ZM522.757 69.3518C522.325 68.214 522.09 66.9562 522.09 65.5376H512.09C512.09 68.0897 512.518 70.5588 513.409 72.904L522.757 69.3518ZM522.09 65.5376C522.09 62.314 523.301 59.5963 526.125 57.1314L519.55 49.5971C514.711 53.8197 512.09 59.2176 512.09 65.5376H522.09ZM526.144 57.1144C528.995 54.6009 532.443 53.2964 536.787 53.2964V43.2964C530.194 43.2964 524.343 45.3705 519.53 49.6141L526.144 57.1144ZM536.787 53.2964C539.671 53.2964 542.688 53.9172 545.873 55.2564L549.749 46.0385C545.48 44.243 541.148 43.2964 536.787 43.2964V53.2964ZM545.873 55.2564C548.802 56.4885 551.207 58.3386 553.153 60.86L561.069 54.7504C558.069 50.8629 554.274 47.9411 549.749 46.0385L545.873 55.2564ZM567.09 49.1846V44.1846H562.09V49.1846H567.09ZM576.181 49.1846H581.181V44.1846H576.181V49.1846ZM576.181 80.9502H571.181V94.3444L579.958 84.2266L576.181 80.9502ZM583.182 74.6807L585.744 78.9742L585.754 78.9682L585.764 78.9621L583.182 74.6807ZM600.632 76.9272L596.986 80.3484L597.007 80.3717L597.029 80.3946L600.632 76.9272ZM604.655 117V122H609.655V117H604.655ZM595.564 117H590.564V122H595.564V117ZM593.474 82.9878L589.626 86.1807L589.646 86.2046L589.666 86.2284L593.474 82.9878ZM579.629 84.2417L575.992 80.8101L575.98 80.8237L575.967 80.8375L579.629 84.2417ZM576.181 117V122H581.181V117H576.181ZM567.09 117H562.09V122H567.09V117ZM567.09 54.1846H576.181V44.1846H567.09V54.1846ZM571.181 49.1846V80.9502H581.181V49.1846H571.181ZM579.958 84.2266C582.279 81.5503 584.213 79.8877 585.744 78.9742L580.619 70.3871C577.831 72.0511 575.098 74.5682 572.404 77.6738L579.958 84.2266ZM585.764 78.9621C587.022 78.2035 588.748 77.6953 591.175 77.6953V67.6953C587.333 67.6953 583.73 68.5107 580.599 70.3992L585.764 78.9621ZM591.175 77.6953C593.364 77.6953 595.222 78.4691 596.986 80.3484L604.278 73.506C600.747 69.7428 596.301 67.6953 591.175 67.6953V77.6953ZM597.029 80.3946C598.806 82.2404 599.655 84.3379 599.655 86.9585H609.655C609.655 81.777 607.822 77.187 604.234 73.4599L597.029 80.3946ZM599.655 86.9585V117H609.655V86.9585H599.655ZM604.655 112H595.564V122H604.655V112ZM600.564 117V89.5186H590.564V117H600.564ZM600.564 89.5186C600.564 85.9363 599.63 82.5068 597.282 79.7472L589.666 86.2284C590.104 86.7428 590.564 87.6672 590.564 89.5186H600.564ZM597.322 79.7949C594.946 76.9315 591.683 75.5322 588.041 75.5322V85.5322C588.926 85.5322 589.286 85.77 589.626 86.1807L597.322 79.7949ZM588.041 75.5322C583.331 75.5322 579.23 77.3795 575.992 80.8101L583.265 87.6733C584.695 86.1579 586.201 85.5322 588.041 85.5322V75.5322ZM575.967 80.8375C572.769 84.2774 571.181 88.5055 571.181 93.228H581.181C581.181 90.9148 581.891 89.152 583.291 87.6459L575.967 80.8375ZM571.181 93.228V117H581.181V93.228H571.181ZM576.181 112H567.09V122H576.181V112ZM572.09 117V49.1846H562.09V117H572.09ZM620.538 79.5918L624.046 83.154L624.046 83.1538L620.538 79.5918ZM652.826 79.4873L649.331 83.0629L649.338 83.0697L649.345 83.0764L652.826 79.4873ZM652.93 111.305L649.368 107.797L649.368 107.797L652.93 111.305ZM620.59 111.357L617.095 114.933L617.101 114.939L617.108 114.946L620.59 111.357ZM646.817 85.7568L643.327 89.3368L643.338 89.3481L643.35 89.3593L646.817 85.7568ZM626.703 85.8091L630.171 89.4107L630.172 89.4099L626.703 85.8091ZM626.755 105.088L623.309 108.711L623.32 108.721L623.331 108.731L626.755 105.088ZM646.765 104.983L643.252 101.426L646.765 104.983ZM618.589 95.2656C618.589 90.8651 620.258 86.8852 624.046 83.154L617.029 76.0296C611.552 81.424 608.589 87.8934 608.589 95.2656H618.589ZM624.046 83.1538C627.868 79.3892 631.985 77.6953 636.577 77.6953V67.6953C629.118 67.6953 622.542 70.5991 617.029 76.0298L624.046 83.1538ZM636.577 77.6953C641.407 77.6953 645.586 79.4026 649.331 83.0629L656.321 75.9117C650.8 70.516 644.147 67.6953 636.577 67.6953V77.6953ZM649.345 83.0764C653.083 86.7022 654.774 90.6957 654.774 95.2656H664.774C664.774 87.7841 661.834 81.2587 656.307 75.8982L649.345 83.0764ZM654.774 95.2656C654.774 99.9112 653.084 104.024 649.368 107.797L656.492 114.814C661.902 109.321 664.774 102.741 664.774 95.2656H654.774ZM649.368 107.797C645.693 111.528 641.702 113.202 637.204 113.202V123.202C644.618 123.202 651.112 120.277 656.493 114.814L649.368 107.797ZM637.204 113.202C632.17 113.202 627.87 111.455 624.072 107.769L617.108 114.946C622.714 120.386 629.49 123.202 637.204 123.202V113.202ZM624.085 107.782C620.317 104.098 618.589 99.9994 618.589 95.2656H608.589C608.589 102.862 611.528 109.491 617.095 114.933L624.085 107.782ZM655.997 95.2656C655.997 90.1643 653.988 85.7184 650.285 82.1544L643.35 89.3593C645.22 91.1592 645.997 93.0525 645.997 95.2656H655.997ZM650.308 82.1768C646.604 78.5656 642.049 76.6816 636.891 76.6816V86.6816C639.395 86.6816 641.458 87.5145 643.327 89.3368L650.308 82.1768ZM636.891 76.6816C631.65 76.6816 627.013 78.5667 623.234 82.2083L630.172 89.4099C632.104 87.5482 634.26 86.6816 636.891 86.6816V76.6816ZM623.234 82.2075C619.469 85.8332 617.471 90.3761 617.471 95.5791H627.471C627.471 93.189 628.293 91.2185 630.171 89.4107L623.234 82.2075ZM617.471 95.5791C617.471 100.7 619.558 105.143 623.309 108.711L630.201 101.465C628.24 99.5997 627.471 97.7034 627.471 95.5791H617.471ZM623.331 108.731C627.122 112.294 631.716 114.163 636.891 114.163V104.163C634.333 104.163 632.17 103.315 630.179 101.444L623.331 108.731ZM636.891 114.163C642.045 114.163 646.578 112.196 650.279 108.541L643.252 101.426C641.31 103.344 639.26 104.163 636.891 104.163V114.163ZM650.279 108.541C653.973 104.892 655.997 100.4 655.997 95.2656H645.997C645.997 97.515 645.2 99.5019 643.252 101.426L650.279 108.541ZM679.68 73.897H684.68V68.897H679.68V73.897ZM679.68 82.5698H674.68V99.1937L683.851 85.328L679.68 82.5698ZM710.767 79.3828L707.047 82.7244L707.061 82.7397L707.075 82.7548L710.767 79.3828ZM687.047 115.694L684.566 120.035L684.577 120.041L684.588 120.048L687.047 115.694ZM679.785 108.432L684.064 105.845L674.785 90.4926V108.432H679.785ZM679.785 137.219V142.219H684.785V137.219H679.785ZM670.694 137.219H665.694V142.219H670.694V137.219ZM670.694 73.897V68.897H665.694V73.897H670.694ZM703.034 85.3389L699.499 88.8744L699.509 88.8852L699.52 88.896L703.034 85.3389ZM682.71 85.2866L679.218 81.7082L679.207 81.7188L679.197 81.7295L682.71 85.2866ZM682.658 105.506L679.08 108.998L679.091 109.009L679.101 109.02L682.658 105.506ZM674.68 73.897V82.5698H684.68V73.897H674.68ZM683.851 85.328C687.453 79.8812 691.578 77.6953 696.399 77.6953V67.6953C687.635 67.6953 680.615 72.0924 675.51 79.8116L683.851 85.328ZM696.399 77.6953C700.437 77.6953 703.91 79.232 707.047 82.7244L714.486 76.0412C709.613 70.617 703.507 67.6953 696.399 67.6953V77.6953ZM707.075 82.7548C710.247 86.2279 711.827 90.3085 711.827 95.2656H721.827C721.827 87.8927 719.367 81.3848 714.458 76.0108L707.075 82.7548ZM711.827 95.2656C711.827 100.297 710.226 104.478 706.998 108.065L714.431 114.754C719.353 109.285 721.827 102.704 721.827 95.2656H711.827ZM706.998 108.065C703.765 111.657 700.264 113.202 696.294 113.202V123.202C703.401 123.202 709.513 120.218 714.431 114.754L706.998 108.065ZM696.294 113.202C694.004 113.202 691.763 112.615 689.505 111.34L684.588 120.048C688.252 122.116 692.176 123.202 696.294 123.202V113.202ZM689.528 111.353C687.412 110.144 685.584 108.36 684.064 105.845L675.506 111.018C677.817 114.842 680.83 117.9 684.566 120.035L689.528 111.353ZM674.785 108.432V137.219H684.785V108.432H674.785ZM679.785 132.219H670.694V142.219H679.785V132.219ZM675.694 137.219V73.897H665.694V137.219H675.694ZM670.694 78.897H679.68V68.897H670.694V78.897ZM712.318 95.2656C712.318 90.0493 710.294 85.4823 706.548 81.7817L699.52 88.896C701.486 90.838 702.318 92.8889 702.318 95.2656H712.318ZM706.57 81.8033C702.823 78.0563 698.208 76.0547 692.951 76.0547V86.0547C695.426 86.0547 697.533 86.9092 699.499 88.8744L706.57 81.8033ZM692.951 76.0547C687.672 76.0547 683.016 78.0023 679.218 81.7082L686.203 88.865C688.187 86.9284 690.358 86.0547 692.951 86.0547V76.0547ZM679.197 81.7295C675.44 85.44 673.426 90.0279 673.426 95.2656H683.426C683.426 92.8406 684.268 90.7758 686.224 88.8438L679.197 81.7295ZM673.426 95.2656C673.426 100.544 675.374 105.201 679.08 108.998L686.237 102.014C684.3 100.029 683.426 97.8587 683.426 95.2656H673.426ZM679.101 109.02C682.843 112.807 687.465 114.842 692.742 114.842V104.842C690.286 104.842 688.185 103.986 686.215 101.992L679.101 109.02ZM692.742 114.842C698.086 114.842 702.785 112.879 706.57 109.094L699.499 102.023C697.571 103.95 695.409 104.842 692.742 104.842V114.842ZM706.57 109.094C710.355 105.309 712.318 100.61 712.318 95.2656H702.318C702.318 97.9326 701.426 100.095 699.499 102.023L706.57 109.094Z" fill="#954595"/>
<defs>
<filter id="filter0_i_0_1" x="36.4263" y="39.4146" width="680.401" height="105.148" filterUnits="userSpaceOnUse" color-interpolation-filters="sRGB">
<feFlood flood-opacity="0" result="BackgroundImageFix"/>
<feBlend mode="normal" in="SourceGraphic" in2="BackgroundImageFix" result="shape"/>
<feColorMatrix in="SourceAlpha" type="matrix" values="0 0 0 0 0 0 0 0 0 0 0 0 0 0 0 0 0 0 127 0" result="hardAlpha"/>
<feOffset dy="4"/>
<feGaussianBlur stdDeviation="2"/>
<feComposite in2="hardAlpha" operator="arithmetic" k2="-1" k3="1"/>
<feColorMatrix type="matrix" values="0 0 0 0 0 0 0 0 0 0 0 0 0 0 0 0 0 0 0.25 0"/>
<feBlend mode="normal" in2="shape" result="effect1_innerShadow_0_1"/>
</filter>
</defs>
</svg>
